<?xml version="1.0" encoding="utf-8"?>
<svg version="1.1" id="Layer_1" xmlns="http://www.w3.org/2000/svg" xmlns:xlink="http://www.w3.org/1999/xlink" x="0px" y="0px"
	 viewBox="0 0 344 57" style="enable-background:new 0 0 344 57;" xml:space="preserve">
<style type="text/css">
	.st0{fill:#FF1717;}
	.st1{fill:#701EC6;}
</style>
<g>
	<path class="st0" d="M72,3.3l-10.4,53H47.7l5.4-27.9L35.5,51.1h-6.6l-9.6-22.7l-5.6,27.9H0l10.6-53h12.2L35.1,34L59.2,3.3H72z"/>
	<path class="st0" d="M102.7,46H80.1L74,56.3H58.2l34-53h14.8l12.8,53h-14.9L102.7,46z M100.4,35l-3.6-17.2L86.7,35H100.4z"/>
	<path class="st0" d="M156.7,28.7h13.2L165.5,51c-2.7,2.1-5.9,3.6-9.5,4.7c-3.6,1.1-7.4,1.6-11.4,1.6c-5.3,0-10-1-14-2.9
		c-4-1.9-7.1-4.7-9.3-8.2c-2.2-3.5-3.3-7.6-3.3-12.2c0-6.1,1.4-11.6,4.2-16.4c2.8-4.8,6.8-8.6,11.9-11.3c5.1-2.7,10.9-4.1,17.5-4.1
		c10.5,0,18.2,3.3,23.1,9.8L164,20.5c-1.7-2.1-3.6-3.6-5.7-4.5c-2.1-0.9-4.5-1.3-7.3-1.3c-3.6,0-6.7,0.8-9.4,2.4
		c-2.7,1.6-4.8,3.8-6.2,6.5c-1.5,2.8-2.2,5.9-2.2,9.5c0,3.6,1.2,6.5,3.6,8.7c2.4,2.1,5.7,3.2,10,3.2c2.6,0,4.9-0.4,7-1.3L156.7,28.7
		z"/>
	<path class="st1" d="M205,18.2c2.6,1.4,4.7,3.3,6.2,5.8c1.5,2.5,2.2,5.5,2.2,8.9c0,4.5-1,8.5-2.9,12.1c-1.9,3.6-4.6,6.4-8.1,8.5
		c-3.4,2-7.3,3.1-11.6,3.1c-3.8,0-7-0.8-9.6-2.3c-2.6-1.6-4.5-3.8-5.6-6.7l-1.7,8.7h-5.1l11.2-56.1h5.4l-4.5,22.3
		c1.9-2,4.1-3.6,6.7-4.7c2.5-1.1,5.4-1.6,8.4-1.6C199.3,16.2,202.4,16.9,205,18.2z M199.6,49.5c2.6-1.6,4.6-3.8,6.1-6.6
		c1.5-2.8,2.2-6,2.2-9.6c0-3.9-1.1-6.9-3.4-9.1c-2.3-2.2-5.5-3.3-9.6-3.3c-3.3,0-6.2,0.8-8.8,2.4c-2.6,1.6-4.6,3.8-6.1,6.7
		c-1.5,2.8-2.2,6.1-2.2,9.6c0,3.9,1.1,6.9,3.4,9.1c2.3,2.2,5.5,3.3,9.6,3.3C194,51.9,197,51.1,199.6,49.5z"/>
	<path class="st1" d="M256.7,16.5l-7.9,39.8h-5.1l1.3-6.3c-1.9,2.1-4.2,3.8-6.8,4.9c-2.6,1.2-5.5,1.7-8.7,1.7c-3.4,0-6.4-0.7-9-2
		c-2.6-1.4-4.7-3.3-6.1-5.9c-1.5-2.5-2.2-5.5-2.2-9c0-4.5,1-8.5,2.9-12.1c1.9-3.6,4.6-6.4,8.1-8.4c3.4-2,7.3-3.1,11.5-3.1
		c3.8,0,7,0.7,9.5,2.2c2.6,1.5,4.4,3.6,5.6,6.4l1.7-8.3H256.7z M239.4,49.5c2.6-1.6,4.7-3.8,6.2-6.7c1.5-2.8,2.2-6,2.2-9.6
		c0-3.9-1.1-6.9-3.4-9.1c-2.3-2.2-5.5-3.3-9.6-3.3c-3.3,0-6.2,0.8-8.9,2.4c-2.6,1.6-4.7,3.8-6.2,6.7c-1.5,2.8-2.2,6-2.2,9.6
		c0,3.9,1.1,6.9,3.4,9.1c2.3,2.2,5.5,3.3,9.6,3.3C233.8,51.9,236.8,51.1,239.4,49.5z"/>
	<path class="st1" d="M294,19.6c2.5,2.3,3.7,5.5,3.7,9.5c0,1.4-0.2,2.9-0.5,4.5l-4.5,22.6h-5.4l4.5-22.7c0.3-1.4,0.4-2.6,0.4-3.6
		c0-2.9-0.9-5.1-2.6-6.6c-1.7-1.5-4.3-2.3-7.7-2.3c-4.3,0-7.8,1.2-10.6,3.5c-2.8,2.3-4.6,5.8-5.6,10.4l-4.2,21.3h-5.4l7.9-39.8h5.1
		l-1.3,6.4c3.8-4.4,9-6.7,15.6-6.7C288,16.2,291.5,17.3,294,19.6z"/>
	<path class="st1" d="M322.8,32.9l14.3,23.4h-6.3l-12.3-20.1l-11.1,8.6l-2.3,11.5h-5.4L311,0.2h5.4l-7.6,37.7l27.4-21.4h7.6
		L322.8,32.9z"/>
</g>
</svg>
